<svg width="20" height="21" viewBox="0 0 20 21" fill="none" xmlns="http://www.w3.org/2000/svg">
<path d="M12.1084 8.12048L7.89172 12.3372C7.35006 11.7955 7.01672 11.0538 7.01672 10.2288C7.01672 8.57882 8.35006 7.24548 10.0001 7.24548C10.8251 7.24548 11.5667 7.57882 12.1084 8.12048Z" stroke="#6C6F72" stroke-width="1.5" stroke-linecap="round" stroke-linejoin="round"/>
<path d="M14.85 5.03716C13.3917 3.93716 11.725 3.33716 9.99999 3.33716C7.05832 3.33716 4.31666 5.07049 2.40833 8.07049C1.65833 9.24549 1.65833 11.2205 2.40833 12.3955C3.06666 13.4288 3.83332 14.3205 4.66666 15.0372" stroke="#6C6F72" stroke-width="1.5" stroke-linecap="round" stroke-linejoin="round"/>
<path d="M7.01672 16.5038C7.96672 16.9038 8.97506 17.1205 10.0001 17.1205C12.9417 17.1205 15.6834 15.3872 17.5917 12.3872C18.3417 11.2122 18.3417 9.23716 17.5917 8.06216C17.3167 7.62882 17.0167 7.22049 16.7084 6.83716" stroke="#6C6F72" stroke-width="1.5" stroke-linecap="round" stroke-linejoin="round"/>
<path d="M12.925 10.8121C12.7083 11.9871 11.75 12.9455 10.575 13.1621" stroke="#6C6F72" stroke-width="1.5" stroke-linecap="round" stroke-linejoin="round"/>
<path d="M7.89163 12.3372L1.66663 18.5622" stroke="#6C6F72" stroke-width="1.5" stroke-linecap="round" stroke-linejoin="round"/>
<path d="M18.3333 1.89549L12.1083 8.12049" stroke="#6C6F72" stroke-width="1.5" stroke-linecap="round" stroke-linejoin="round"/>
</svg>
