<svg width="20" height="20" viewBox="0 0 20 20" fill="none" xmlns="http://www.w3.org/2000/svg">
<path d="M18.7434 8.71729L11.028 8.71692C10.6873 8.71692 10.4111 8.99304 10.4111 9.33373V11.7984C10.4111 12.1391 10.6873 12.4153 11.0279 12.4153H15.3728C14.897 13.65 14.009 14.684 12.8761 15.341L14.7287 18.548C17.7006 16.8293 19.4576 13.8136 19.4576 10.4378C19.4576 9.95709 19.4222 9.61347 19.3513 9.22656C19.2974 8.9326 19.0422 8.71729 18.7434 8.71729Z" fill="#167EE6"/>
<path d="M9.99886 16.1188C7.87259 16.1188 6.01637 14.957 5.01943 13.2379L1.81247 15.0864C3.44447 17.9149 6.50174 19.8196 9.99886 19.8196C11.7144 19.8196 13.3332 19.3577 14.7277 18.5527V18.5483L12.8751 15.3412C12.0276 15.8327 11.047 16.1188 9.99886 16.1188Z" fill="#12B347"/>
<path d="M14.729 18.5521V18.5477L12.8763 15.3406C12.0289 15.8321 11.0483 16.1182 10.0001 16.1182V19.819C11.7157 19.819 13.3345 19.3571 14.729 18.5521Z" fill="#0F993E"/>
<path d="M4.24334 10.3619C4.24334 9.31387 4.52936 8.33334 5.02076 7.48596L1.81379 5.63751C1.00439 7.0276 0.542511 8.64197 0.542511 10.3619C0.542511 12.0819 1.00439 13.6963 1.81379 15.0863L5.02076 13.2379C4.52936 12.3905 4.24334 11.41 4.24334 10.3619Z" fill="#FFD500"/>
<path d="M9.99886 4.60487C11.3854 4.60487 12.659 5.09755 13.6538 5.91708C13.8992 6.11923 14.2559 6.10464 14.4807 5.87984L16.2271 4.1335C16.4821 3.87844 16.464 3.46094 16.1915 3.22457C14.5248 1.77862 12.3562 0.904053 9.99886 0.904053C6.50174 0.904053 3.44447 2.80877 1.81247 5.63726L5.01943 7.48571C6.01637 5.7666 7.87259 4.60487 9.99886 4.60487Z" fill="#FF4B26"/>
<path d="M13.6551 5.91708C13.9005 6.11923 14.2572 6.10464 14.482 5.87984L16.2283 4.1335C16.4834 3.87844 16.4652 3.46094 16.1928 3.22457C14.526 1.77859 12.3574 0.904053 10.0001 0.904053V4.60487C11.3866 4.60487 12.6603 5.09755 13.6551 5.91708Z" fill="#D93F21"/>
</svg>
